<?xml version="1.0" encoding="utf-8"?><!-- Uploaded to: SVG Repo, www.svgrepo.com, Generator: SVG Repo Mixer Tools -->
<svg fill="#000000" width="800px" height="800px" viewBox="0 0 24 24" id="download-double-arrow-3" data-name="Flat Color" xmlns="http://www.w3.org/2000/svg" class="icon flat-color"><path id="secondary" d="M15.71,17.29a1,1,0,0,1,0,1.42l-3,3a1,1,0,0,1-1.42,0l-3-3a1,1,0,0,1,1.42-1.42L12,19.59l2.29-2.3A1,1,0,0,1,15.71,17.29Zm-4.42-.58a1,1,0,0,0,1.42,0l3-3a1,1,0,0,0-1.42-1.42L13,13.59V7a1,1,0,0,0-2,0v6.59l-1.29-1.3a1,1,0,0,0-1.42,1.42Z" style="fill: rgb(44, 169, 188);"></path><path id="primary" d="M20,8a1,1,0,0,1-1-1V4H5V7A1,1,0,0,1,3,7V4A2,2,0,0,1,5,2H19a2,2,0,0,1,2,2V7A1,1,0,0,1,20,8Z" style="fill: rgb(0, 0, 0);"></path></svg>